<svg id="Layer_1" data-name="Layer 1" xmlns="http://www.w3.org/2000/svg" viewBox="0 0 300 301"><defs><style>.cls-1{fill:#df0623;}.cls-1,.cls-10,.cls-100,.cls-101,.cls-102,.cls-103,.cls-104,.cls-105,.cls-106,.cls-11,.cls-12,.cls-13,.cls-14,.cls-15,.cls-16,.cls-17,.cls-18,.cls-19,.cls-2,.cls-20,.cls-21,.cls-22,.cls-23,.cls-24,.cls-25,.cls-26,.cls-27,.cls-28,.cls-29,.cls-3,.cls-30,.cls-31,.cls-32,.cls-33,.cls-34,.cls-35,.cls-36,.cls-37,.cls-38,.cls-39,.cls-4,.cls-40,.cls-41,.cls-42,.cls-43,.cls-45,.cls-46,.cls-47,.cls-48,.cls-5,.cls-50,.cls-51,.cls-54,.cls-56,.cls-57,.cls-58,.cls-59,.cls-6,.cls-60,.cls-61,.cls-62,.cls-63,.cls-64,.cls-65,.cls-66,.cls-67,.cls-68,.cls-69,.cls-7,.cls-70,.cls-71,.cls-72,.cls-73,.cls-74,.cls-75,.cls-76,.cls-77,.cls-78,.cls-79,.cls-8,.cls-80,.cls-81,.cls-82,.cls-83,.cls-84,.cls-85,.cls-86,.cls-87,.cls-88,.cls-89,.cls-9,.cls-90,.cls-91,.cls-92,.cls-93,.cls-94,.cls-95,.cls-96,.cls-97,.cls-98,.cls-99{fill-rule:evenodd;}.cls-2{fill:#de0622;}.cls-3{fill:#dc0622;}.cls-4{fill:#da0622;}.cls-5{fill:#d80521;}.cls-6{fill:#d70521;}.cls-7{fill:#d60521;}.cls-8{fill:#d40520;}.cls-9{fill:#d20520;}.cls-10{fill:#d10420;}.cls-11{fill:#cf041f;}.cls-12{fill:#ce041f;}.cls-13{fill:#cc041f;}.cls-14{fill:#cb041e;}.cls-15{fill:#c9031e;}.cls-16{fill:#c8031e;}.cls-17{fill:#c6031d;}.cls-18{fill:#c4021d;}.cls-19{fill:#c3021c;}.cls-20{fill:#c1021c;}.cls-21{fill:#c0021b;}.cls-22{fill:#be011b;}.cls-23{fill:#bc011a;}.cls-24{fill:#ba011a;}.cls-25{fill:#b80019;}.cls-26{fill:#b70019;}.cls-27{fill:#b50018;}.cls-28{fill:#b40018;}.cls-29{fill:#b20017;}.cls-30{fill:#b00017;}.cls-31{fill:#ae0016;}.cls-32{fill:#ad0015;}.cls-33{fill:#ab0015;}.cls-34{fill:#a80014;}.cls-35{fill:#a60014;}.cls-36{fill:#a40013;}.cls-37{fill:#a30013;}.cls-38{fill:#a10012;}.cls-39{fill:#a00011;}.cls-40{fill:#9d0010;}.cls-41{fill:#9c0010;}.cls-42{fill:#9a000f;}.cls-43{fill:#d6e6ae;}.cls-44,.cls-49,.cls-52,.cls-53,.cls-55{fill:none;stroke-miterlimit:2.61;}.cls-44{stroke:#008c43;}.cls-44,.cls-49,.cls-52{stroke-width:0.35px;}.cls-45{fill:#6a1a00;}.cls-46{fill:#008c43;}.cls-47{fill:#98c19b;}.cls-48{fill:#fff;}.cls-49,.cls-55{stroke:#df0623;}.cls-50{fill:#d4e9d7;}.cls-51{fill:#f3f8f3;}.cls-52,.cls-53{stroke:#6a1a00;}.cls-53,.cls-55{stroke-width:0.28px;}.cls-54{fill:#231916;}.cls-55{stroke-linecap:round;}.cls-56{fill:#df1625;}.cls-57{fill:#df1b27;}.cls-58{fill:#df2529;}.cls-59{fill:#e02a29;}.cls-60{fill:#e0322c;}.cls-61{fill:#e0362e;}.cls-62{fill:#e23c31;}.cls-63{fill:#e24234;}.cls-64{fill:#e24435;}.cls-65{fill:#e34a38;}.cls-66{fill:#e34d39;}.cls-67{fill:#e3523d;}.cls-68{fill:#e4553f;}.cls-69{fill:#e45943;}.cls-70{fill:#e45e46;}.cls-71{fill:#e56049;}.cls-72{fill:#e5664c;}.cls-73{fill:#e5684d;}.cls-74{fill:#e66c52;}.cls-75{fill:#e66f54;}.cls-76{fill:#e77358;}.cls-77{fill:#e9785d;}.cls-78{fill:#e97b5e;}.cls-79{fill:#ea7f62;}.cls-80{fill:#ea8065;}.cls-81{fill:#eb8569;}.cls-82{fill:#eb876c;}.cls-83{fill:#eb8b6f;}.cls-84{fill:#ec8e74;}.cls-85{fill:#ec9277;}.cls-86{fill:#ed977c;}.cls-87{fill:#ee997e;}.cls-88{fill:#ef9e83;}.cls-89{fill:#efa085;}.cls-90{fill:#f0a48b;}.cls-91{fill:#f0a68c;}.cls-92{fill:#f1aa91;}.cls-93{fill:#f1af96;}.cls-94{fill:#f2b19a;}.cls-95{fill:#f2b59f;}.cls-96{fill:#f2b7a0;}.cls-97{fill:#f3bba5;}.cls-98{fill:#f3bea8;}.cls-99{fill:#f4c2ae;}.cls-100{fill:#f4c6b3;}.cls-101{fill:#f5c8b6;}.cls-102{fill:#f7cdba;}.cls-103{fill:#f7cebe;}.cls-104{fill:#f8d3c3;}.cls-105{fill:#f8d5c5;}.cls-106{fill:#f9d9ca;}</style></defs><path class="cls-1" d="M150,300.5c82.78,0,150.06-67.14,150.06-149.94a150.07,150.07,0,0,0-300.14,0C-.07,233.36,67.09,300.5,150,300.5Z"/><path class="cls-1" d="M49.73,262.12c21.56,10.79,46,16.17,71.76,16.17A159.23,159.23,0,0,0,280.75,119,157.9,157.9,0,0,0,269.2,59.5c1.3,1.71,2.62,3.55,3.93,5.38,4.73,10,10.38,27.47,10.38,53.35,0,105-78.45,163.21-161.77,163.21-31.13,0-58.47-11.95-71.34-18.65-.27-.26-.4-.53-.67-.67Z"/><path class="cls-2" d="M50.4,262.65c21.54,10.77,45.86,16.17,71.61,16.17A159.26,159.26,0,0,0,269.84,60.29c1.45,2,2.9,3.81,4.21,5.78,4.6,10.11,10,27.46,10,52.7,0,105-78.32,163.2-161.77,163.2-31,0-58.21-11.83-71.09-18.66a3.08,3.08,0,0,1-.78-.66Z"/><path class="cls-3" d="M51.05,263.31c21.56,10.64,45.86,16,71.48,16A159.47,159.47,0,0,0,270.63,61.21c1.44,2.1,2.89,4.08,4.34,6.17,4.47,10.25,9.59,27.34,9.59,51.91,0,105-78.32,163.2-161.76,163.2-30.88,0-58-11.82-71-18.52-.27-.27-.52-.4-.79-.66Z"/><path class="cls-4" d="M52.63,264.62c21.29,10.52,45.46,15.9,71,15.9A159.23,159.23,0,0,0,282.85,121.26,157.83,157.83,0,0,0,272,63.18c1.71,2.37,3.28,4.6,4.72,7,4.34,10.38,8.93,26.94,8.93,50.19,0,105-78.31,163.22-161.75,163.22-30.48,0-57.29-11.44-70.43-18.26-.26-.27-.53-.4-.79-.67Z"/><path class="cls-5" d="M53.28,265.29c21.42,10.37,45.47,15.76,71,15.76,87.92,0,159.13-71.35,159.13-159.27a158,158,0,0,0-10.63-57.55c1.7,2.37,3.28,4.86,4.86,7.49,4.21,10.38,8.67,26.54,8.67,49.14,0,105-78.45,163.35-161.9,163.35-30.22,0-56.89-11.43-70.16-18.27-.26-.13-.54-.4-.93-.65Z"/><path class="cls-6" d="M54.08,265.94c21.29,10.38,45.33,15.64,70.69,15.64,87.9,0,159.27-71.35,159.27-159.27a161,161,0,0,0-10.52-57c1.71,2.62,3.41,5.24,5,7.88,4.21,10.5,8.28,26.41,8.28,48.22,0,105-78.45,163.33-161.9,163.33-30,0-56.5-11.3-69.91-18a5.22,5.22,0,0,0-.91-.79Z"/><path class="cls-7" d="M54.87,266.6c21.28,10.24,45.2,15.5,70.42,15.5A159.22,159.22,0,0,0,274.18,66.33c1.84,2.76,3.68,5.65,5.39,8.41,3.94,10.52,7.75,26,7.75,47.18,0,105-78.46,163.33-161.89,163.33-29.7,0-56-11-69.53-17.87a6.57,6.57,0,0,0-1-.78Z"/><path class="cls-8" d="M55.79,267.24c21.15,10.26,44.93,15.39,70,15.39A159.34,159.34,0,0,0,285.09,123.36,157.92,157.92,0,0,0,275,67.52c2,2.88,3.81,5.9,5.51,8.93,3.81,10.39,7.37,25.62,7.37,46,0,105-78.44,163.34-161.89,163.34-29.44,0-55.58-10.77-69.13-17.6a8,8,0,0,0-1-.94Z"/><path class="cls-9" d="M56.71,267.91c21,10.12,44.67,15.25,69.64,15.25,87.91,0,159.25-71.36,159.25-159.27a159.91,159.91,0,0,0-9.85-55.2c2,3,3.94,6.18,5.67,9.47,3.67,10.38,6.95,25.22,6.95,44.81,0,105.13-78.46,163.34-161.89,163.34-29.18,0-55.07-10.65-68.73-17.48a3.3,3.3,0,0,1-1-.92Z"/><path class="cls-10" d="M57.49,268.69c21,10,44.54,15,69.39,15A159.35,159.35,0,0,0,276.54,69.88a106.92,106.92,0,0,1,5.78,10c3.56,10.38,6.57,24.85,6.57,43.63,0,105.13-78.44,163.34-161.89,163.34-28.78,0-54.39-10.38-68.2-17.21l-1.31-.93Z"/><path class="cls-11" d="M58.55,269.35c20.76,9.86,44.14,14.86,68.86,14.86a159.3,159.3,0,0,0,149.92-213c2.11,3.43,4.2,7,6,10.52,3.29,10.25,6.06,24.17,6.06,42.45,0,105-78.32,163.2-161.77,163.2-28.64,0-54-10.13-67.94-16.95-.39-.39-.78-.67-1.17-1.06Z"/><path class="cls-12" d="M59.46,270.14c20.77,9.73,44,14.58,68.45,14.58A159.16,159.16,0,0,0,287.19,125.47a157.4,157.4,0,0,0-9.06-53c2.23,3.67,4.32,7.35,6.16,11.16,3.17,10.13,5.66,23.66,5.66,41,0,105-78.31,163.22-161.76,163.22-28.26,0-53.36-9.86-67.28-16.7a12.34,12.34,0,0,1-1.45-1.05Z"/><path class="cls-13" d="M60.39,270.94c20.62,9.46,43.75,14.31,68.06,14.31A159.44,159.44,0,0,0,279.05,74a125.09,125.09,0,0,1,6.16,11.7c3,9.85,5.26,23,5.26,39.55,0,105-78.31,163.21-161.75,163.21-27.87,0-52.57-9.59-66.77-16.44-.52-.38-1-.64-1.56-1Z"/><path class="cls-14" d="M61.56,271.72c20.51,9.33,43.36,14.06,67.41,14.06A159.12,159.12,0,0,0,288.24,126.65a156.93,156.93,0,0,0-8.41-51.25,123,123,0,0,1,6.44,12.35,145.45,145.45,0,0,1,4.73,38c0,105-78.33,163.21-161.76,163.21-27.47,0-51.91-9.33-66.1-16-.52-.41-1-.8-1.58-1.19Z"/><path class="cls-15" d="M62.62,272.5a161.9,161.9,0,0,0,66.88,13.94A159.65,159.65,0,0,0,280.75,76.85c2.37,4.2,4.46,8.54,6.44,13a143.17,143.17,0,0,1,4.33,36.4c0,105-78.32,163.2-161.75,163.2-26.94,0-51-8.93-65.32-15.76a17.06,17.06,0,0,1-1.83-1.19Z"/><path class="cls-16" d="M63.66,273.3C83.91,282.36,106.37,287,130.17,287c87.9,0,159.12-71.35,159.12-159.26a156.62,156.62,0,0,0-7.76-49.29A142,142,0,0,1,288.24,92a149,149,0,0,1,3.95,34.82c0,105-78.46,163.21-161.91,163.21-26.41,0-50.19-8.67-64.64-15.38-.66-.39-1.31-.92-2-1.31Z"/><path class="cls-17" d="M65,274.08c20,8.94,42.31,13.41,65.69,13.41,87.92,0,159.28-71.35,159.28-159.26a156.52,156.52,0,0,0-7.5-48.1,139.21,139.21,0,0,1,6.71,14.32,143,143,0,0,1,3.54,32.86c0,105-78.44,163.33-161.89,163.33-25.89,0-49.27-8.4-63.72-15.11A18.06,18.06,0,0,1,65,274.08Z"/><path class="cls-18" d="M66.17,274.87a161.82,161.82,0,0,0,65,13.14c87.92,0,159.27-71.35,159.27-159.25a158.35,158.35,0,0,0-7.1-46.92,149.85,149.85,0,0,1,6.71,15,148.22,148.22,0,0,1,3.15,31c0,105-78.44,163.34-161.89,163.34-25.36,0-48.24-8-62.82-14.58a27,27,0,0,1-2.35-1.72Z"/><path class="cls-19" d="M67.48,275.79a162.82,162.82,0,0,0,64.25,12.75A159.15,159.15,0,0,0,284.29,83.67,125.11,125.11,0,0,1,291,99.32a142.88,142.88,0,0,1,2.75,29c0,105-78.44,163.35-161.88,163.35-24.72,0-47.18-7.62-61.77-14.2a27.84,27.84,0,0,1-2.62-1.71Z"/><path class="cls-20" d="M68.79,276.71a163.59,163.59,0,0,0,63.47,12.35A159.31,159.31,0,0,0,291.52,129.8a163,163,0,0,0-6.17-44.15,163.45,163.45,0,0,1,6.7,16.42,158,158,0,0,1,2.23,26.81c0,105.12-78.44,163.34-161.88,163.34-24.19,0-46-7.22-60.58-13.66-1-.66-2-1.19-3-1.85Z"/><path class="cls-21" d="M70.24,277.63a164,164,0,0,0,62.55,12A159.24,159.24,0,0,0,292.05,130.32a157.09,157.09,0,0,0-5.78-42.57,179.21,179.21,0,0,1,6.7,17.08,167.83,167.83,0,0,1,1.84,24.57c0,105.13-78.45,163.34-161.77,163.34-23.52,0-44.8-6.83-59.39-13.14-1.18-.65-2.24-1.31-3.41-2Z"/><path class="cls-22" d="M71.82,278.56c18.91,7.75,39.68,11.56,61.49,11.56A159.25,159.25,0,0,0,292.58,130.85a156.56,156.56,0,0,0-5.39-41,140.6,140.6,0,0,1,6.7,18,160,160,0,0,1,1.45,22.21c0,105-78.32,163.2-161.77,163.2-22.86,0-43.49-6.44-58.08-12.48-1.18-.78-2.49-1.45-3.67-2.23Z"/><path class="cls-23" d="M73.39,279.48c18.65,7.48,39,11.16,60.45,11.16A159.16,159.16,0,0,0,293.11,131.38a162.09,162.09,0,0,0-4.87-39.3,149.72,149.72,0,0,1,6.43,18.8,147.73,147.73,0,0,1,1.2,19.71c0,105-78.33,163.2-161.77,163.2-21.95,0-42.06-5.9-56.38-11.82-1.44-.79-2.89-1.57-4.33-2.49Z"/><path class="cls-24" d="M75,280.52a164.73,164.73,0,0,0,59.39,10.65A159.58,159.58,0,0,0,289.29,94.58a159.83,159.83,0,0,1,6.3,19.59,165.26,165.26,0,0,1,.81,17c0,105-78.33,163.2-161.77,163.2-21,0-40.34-5.51-54.67-11-1.57-.92-3.28-1.84-5-2.76Z"/><path class="cls-25" d="M76.81,281.58a166.67,166.67,0,0,0,58.08,10.24A159.23,159.23,0,0,0,294.15,132.57a164.49,164.49,0,0,0-3.8-35.23,148.69,148.69,0,0,1,6,20.24c.39,4.34.5,9.07.5,14.07,0,105-78.31,163.2-161.74,163.2-20.11,0-38.51-5-52.56-10.25-2-1.05-3.82-2-5.79-3Z"/><path class="cls-25" d="M78.64,282.49a162.72,162.72,0,0,0,56.78,9.86A159.24,159.24,0,0,0,294.67,133.08a160.78,160.78,0,0,0-3.4-33,147.24,147.24,0,0,1,5.91,21.16c.26,3.41.39,7.09.39,10.9,0,105-78.45,163.22-161.9,163.22-18.92,0-36.53-4.48-50.32-9.47-2.25-1.05-4.48-2.23-6.71-3.42Z"/><path class="cls-26" d="M80.76,283.68a166.81,166.81,0,0,0,55.31,9.2A159.33,159.33,0,0,0,295.34,133.61a157.25,157.25,0,0,0-3-30.62,141.11,141.11,0,0,1,5.52,22.21c.13,2.5.27,4.87.27,7.49,0,105-78.45,163.35-161.89,163.35-17.74,0-34.3-4-47.58-8.55-2.63-1.18-5.25-2.49-7.87-3.81Z"/><path class="cls-27" d="M83,284.72a163.52,163.52,0,0,0,53.61,8.68c87.9,0,159.27-71.35,159.27-159.27a161.44,161.44,0,0,0-2.51-27.86,135.77,135.77,0,0,1,5.13,23.27,32.17,32.17,0,0,1,.14,3.67c0,105-78.45,163.34-161.9,163.34-16.3,0-31.67-3.41-44.42-7.49-3.15-1.3-6.31-2.75-9.32-4.34Z"/><path class="cls-28" d="M85.22,285.91a168.77,168.77,0,0,0,51.9,8c87.91,0,159.28-71.36,159.28-159.27a154.94,154.94,0,0,0-2-24.83,147.51,147.51,0,0,1,4.72,24.3c-.26,104.74-78.44,163-161.88,163a144,144,0,0,1-40.61-6.3c-4-1.45-7.75-3.16-11.43-4.87Z"/><path class="cls-29" d="M87.71,287.09a168.91,168.91,0,0,0,49.94,7.36A159.31,159.31,0,0,0,296.9,135.19a163.06,163.06,0,0,0-1.43-21.55,149.44,149.44,0,0,1,4.07,25.62c-2.36,102-79.64,158.35-161.76,158.35a140.45,140.45,0,0,1-36.14-5c-4.73-1.72-9.46-3.56-13.93-5.53Z"/><path class="cls-30" d="M90.47,288.28A167.06,167.06,0,0,0,138.18,295c87.91,0,159.26-71.37,159.26-159.28a167.75,167.75,0,0,0-1-18,162.64,162.64,0,0,1,3.54,27.72c-5.13,98.31-80.95,152.7-161.64,152.7a133.56,133.56,0,0,1-30.62-3.68,150,150,0,0,1-17.21-6.17Z"/><path class="cls-31" d="M93.37,289.45a164.92,164.92,0,0,0,45.34,6.06A159.23,159.23,0,0,0,298,136.24c0-4.73-.26-9.32-.65-13.93a142.84,142.84,0,0,1,2.76,28.25c0,.66-.13,1.45-.13,2.11-8,94.08-82.27,146-161,146a141.38,141.38,0,0,1-24.05-2.23,147.64,147.64,0,0,1-21.54-7Z"/><path class="cls-32" d="M96.52,290.78a169.34,169.34,0,0,0,42.7,5.26A159.25,159.25,0,0,0,298.49,136.77c0-3.16-.14-6.31-.27-9.46a147.92,147.92,0,0,1,1.85,23.25c0,3.69-.27,7.49-.53,11.18-11.69,88.69-83.7,137.45-160,137.45a130.14,130.14,0,0,1-16.3-1.06,162.71,162.71,0,0,1-26.67-7.35Z"/><path class="cls-33" d="M99.93,292a165.66,165.66,0,0,0,39.82,4.6A159.15,159.15,0,0,0,299,137.3v-4.48a158.74,158.74,0,0,1,1.05,17.74,146.53,146.53,0,0,1-2,24.05c-16.57,80.82-85.43,125.1-158.08,125.1a77.38,77.38,0,0,1-7.76-.26A148.79,148.79,0,0,1,99.93,292Z"/><path class="cls-34" d="M103.87,293.27a166.17,166.17,0,0,0,36.4,3.81A159.18,159.18,0,0,0,299.54,138.87c.26,3.81.53,7.76.53,11.69a149,149,0,0,1-6.71,44.16c-22.73,68.2-85.8,105.26-152.17,105.51a145.18,145.18,0,0,1-37.32-7Z"/><path class="cls-35" d="M108.07,294.58a167.11,167.11,0,0,0,32.73,3.16c85.54,0,155.2-67.41,159.14-151.91,0,1.58.13,3.16.13,4.73A149,149,0,0,1,275.36,233c-28.26,41.39-74.77,64.79-124.31,67.55h-1a151.89,151.89,0,0,1-41.94-5.92Z"/><path class="cls-36" d="M112.68,295.9a173,173,0,0,0,28.78,2.37c82.92,0,151.12-63.61,158.48-144.68a149.81,149.81,0,0,1-54.28,112.48c-22.86,18.27-50.85,29.7-80.42,33.64a147.76,147.76,0,0,1-15.23.79,152.14,152.14,0,0,1-37.33-4.6Z"/><path class="cls-37" d="M118.34,297.21A174.08,174.08,0,0,0,142,298.79a159.22,159.22,0,0,0,157.55-136.4A150,150,0,0,1,150,300.5a157,157,0,0,1-31.67-3.29Z"/><path class="cls-38" d="M124.77,298.39a156.32,156.32,0,0,0,17.73.92A159.26,159.26,0,0,0,298.35,172.63,150,150,0,0,1,150,300.5a145.91,145.91,0,0,1-25.24-2.11Z"/><path class="cls-39" d="M132.65,299.58c3.42.13,6.84.26,10.38.26a159.48,159.48,0,0,0,153.23-115.5A150.22,150.22,0,0,1,150,300.5a153.69,153.69,0,0,1-17.36-.92Z"/><path class="cls-40" d="M143,300.37h.53A159.11,159.11,0,0,0,292.31,198,150.08,150.08,0,0,1,150,300.5c-2.37,0-4.61,0-7-.13Z"/><path class="cls-41" d="M157.36,300.37a159.35,159.35,0,0,0,128.12-85.43,150.12,150.12,0,0,1-128.12,85.43Z"/><path class="cls-42" d="M178.91,297.74a159,159,0,0,0,93.3-60.32,149.53,149.53,0,0,1-93.3,60.32Z"/><path class="cls-43" d="M135.42,34.66S154.47,37,167.87,34c0,0,5.13,8-.65,15.11,0,0-.53,18.79,4.59,36.66l-41,.13s6.58-21.68,5.53-36.39a12.82,12.82,0,0,1-.92-14.86Z"/><path class="cls-44" d="M135.42,34.66S154.47,37,167.87,34c0,0,5.13,8-.65,15.11,0,0-.53,18.79,4.59,36.66l-41,.13s6.58-21.68,5.53-36.39a12.82,12.82,0,0,1-.92-14.86Z"/><path class="cls-45" d="M170.63,80.78s-21.81-5.38-38.63.66c0,0-5.26,14.84-9.73,25.36,0,0-5.91,12.63-3,15.12,0,0-8,22.6-3.81,46.39,0,0-1.58,1.44-.92,7.88s5.13,30.62,5.13,33.37,2.49,17.88-2.9,31.28c0,0-5,13.93-3.93,24.31,0,0-.67,13.41,36.66,14.06,0,0,24.3-.12,35.08-6.3,0,0,6-2,4.87-14.46,0,0,.25-6.44-3.82-18.27a42.75,42.75,0,0,1-2.1-20c1.44-11.3,4.72-38.75,4.86-43,0,0,2.11-5.39.78-9.73A106.23,106.23,0,0,0,186.26,123s1.58-.27-1.7-7.36c0,0-11.56-24.57-13.93-34.83Z"/><path class="cls-1" d="M113.86,258.32s-2.5-.13-.12,1.44c0,0,9.19,9.86,35.21,9.2,0,0,20.89,1.18,32.46-4.07,0,0-.8-7.89-.14-8.93,0,0,2-4.34,3.56-1.84a49.74,49.74,0,0,1,1.43,7.22s.41,1.7,1.19-.65c.67-1.85-1.84-9.85-3.94-14.19,0,0-.8-6.18-2.1-5.4,0,0-.14,1.19-1.32-.92,0,0-3-4.73-1.71-6.18s1.31-1.45,1.31-1.45,3.43-53.6,7.23-64.12a2.07,2.07,0,0,0-2.62-.39,29.79,29.79,0,0,1-3.55,1.58s-.66,5.26-.66,7.88S175,223.89,175.62,228a5.67,5.67,0,0,1,.26,4.87s-1.57,7.09-2.88,8.27a2,2,0,0,0,1.84.39s2,6.45,5.25,5.26c0,0,1.84-.78,1.84.66s-.13,1.45-1.18,1.45-1.06-.92-2-.53l-2,2.76c-.66.92-1.83,2.37-1.32,4.21s.66,2.36,1.83,3.28.53,1.84-.25,2.11-2,1.17-1.45,1.7a3.73,3.73,0,0,0,2.51.26l.91-.26v1.18a6.25,6.25,0,0,0-2.5.27c-.52.26-.92.92-1.56,1.31,0,0,.11.39-.67.39s-16.95,1.84-23.26,1.84-28.12-.26-37.19-9.06Z"/><path class="cls-1" d="M135.28,258.84a5.54,5.54,0,0,0-4.08-2.63s-2.36-.91.53-1.31c1.84-.27,3.94,2.23,4.48,3.29s0,1.44-.93.65Z"/><path class="cls-1" d="M179.83,121.66A5,5,0,0,1,177.6,123c-1.06.13-3.95-17.35-5.66-20.9,0,0-1.44-.65-2-3.41S166.69,85,167.22,82.1c0,0,1.57.26,3.41.65,0,0,8.14,25.63,13.93,36.15,1.05-.27.79,4.07-1.31,3.15,0,0-2.24-2.23-5.93-13,0,0-4.46-13.55-4.85-14.08,0,0,6.44,25,7.36,26.69Z"/><path class="cls-46" d="M171.29,124.42s4.73.66,6.44-1.58L167.08,80.27l-2-.41s5.53,43,6.19,44.56Z"/><path class="cls-1" d="M165.77,79.86a10.06,10.06,0,0,0-2.37-.39c-1.7-.26,3.68,28.91,4.47,32.59s1.72,10.52,2,12.1c0,0,.39.39,2.1.26a84.35,84.35,0,0,0-2.89-23.14s-3.28-16.68-3.28-21.42Z"/><path class="cls-1" d="M163.27,90.38S160.78,88,161,91c0,0,4.34,30.62,5.12,33.12a2.16,2.16,0,0,0,2.63.26s-4.86-28.65-5.52-34Z"/><path class="cls-1" d="M152,78.55a15.09,15.09,0,0,0-3.41.39v6.18A4,4,0,0,1,150,82.23a3.18,3.18,0,0,1,2.48-.79s-.52-1.44-1.7-1.31a4.36,4.36,0,0,1,3-.92,4.77,4.77,0,0,0-1.84-.66Z"/><path class="cls-1" d="M152.77,90.51h-1.06s.39,30.75-.27,34c0,0,.92.92,1.72.53,0,0,.13-30.89-.39-34.57Z"/><path class="cls-1" d="M132.26,93.53s-10.91,25.24-8.94,27.46a9.18,9.18,0,0,1-3.54-.25s4.59,2.62,7.1,2.75a5.63,5.63,0,0,0,5.65-2.5c1-1.83,4.46-15.63,4.46-15.63s-2.23,15.5-2.63,16.56c0,0-.91.78.92,1.31,0,0,.66.93,1.32-3.8L141.72,87l-1.84-1.7-10,34.56s.39,1.84-2.48,1.71c0,0-3.56,1.7-1.59-4,0,0,5.13-17.08,5.13-18,0,0,1.7-5,1.31-6Z"/><path class="cls-1" d="M141.06,79.35s-10.25,1.43-7.49,2.88c0,0,1.71,2,6.7,2.24a29.92,29.92,0,0,0,.79-5.12Z"/><path class="cls-47" d="M114.13,260l.53,6.83s2.23,9.85,33.63,10.77c0,0,20.24,1.32,27.2-5,0,0,.92-.26.53-3,0,0-.65-.93-1.71.26a8.53,8.53,0,0,1-.78,2.09c-.53.53-1.32.67-2.5-.64a4.13,4.13,0,0,0-3.95-1.84s-7.36,1.06-8.54-.53c0,0-34.3,1.59-44.41-8.93Z"/><path class="cls-46" d="M157.62,34.79,157.49,44l-6.05.55s-1.43,1.95.4,3.28l10.52.12s1.57,1.84,0,2c0,0-3.56,1.18-10.52.92l-.13,3.28s2.9-.53,3.29,4.34l.11,20.37s7.37.53,11.44,1.18c0,0-2.62-22.86-1.7-30.23,0,0,2.89-.53,3.54-2,0,0,4.08-4.34-.52-13.94l-10.25.92Z"/><path class="cls-46" d="M137.39,45.17l-1.45-.52s-.66-5.65.66-10l1.84.13s-1.84,6.57-1.05,10.38Z"/><path class="cls-46" d="M139.63,49.52h-1.85s-.39,23.24-3.42,31.26c0,0,2.1-.65,3-.92,0,0,2.75-25.62,2.24-30.34Z"/><path class="cls-1" d="M155.64,259.24s-3.67.52-3.8,3c0,0-.13,3.28,3.68,3.28,0,0,9.86-.39,12.09-1.31a9.33,9.33,0,0,1,4.08-.92s-2.38-.78-4.08-1.31-3.15-2.37-4.34-2.63a23.76,23.76,0,0,0-7.63-.13Z"/><path class="cls-1" d="M156.31,246s-2.9,3.42-2.9,7.1a2.28,2.28,0,0,0,1.84,2.75,19.93,19.93,0,0,0,5.26.26s2.23-2-.26-2.23c0,0-1.45-.14-3-.26s-1.06-.66-1.06-1.85a7.72,7.72,0,0,1,1.45-4.2s1.31-2.63-1.31-1.57Z"/><path class="cls-1" d="M138,254.77s-.92-2.37-2.76-2.76-3.41-.39-3.41-.39-2.9.12-.92-4.87,3.28-8.93,3.28-8.93,1.58-6.44,1.44-10.38-1-17.09-1.44-26.15-1.58-26.41-1.31-27.46c0,0,1-.93,4.34-.67s5.52.14,5.52,3.29,1.31,30.49.52,46c0,0,.13,23.64-5.26,32.32Z"/><path class="cls-1" d="M122,171.46s-1.19-2-2-.79-.14,3.94-.14,3.94,3.29,33.38,3.42,40.47l.4,4.47s.79.26.79-2-2.1-42.45-2.5-46.12Z"/><path class="cls-1" d="M123.46,171.59s7.49,2,8.8,2c0,0,1.19,25.61,1.45,29.56s.92,16.29.92,16.29-1.45,2.5-1.45-1.31c0,0-2-40-2.76-43.5,0,0-5-1-6.18-1.84s-1.44-.92-.78-1.18Z"/><path class="cls-1" d="M153.68,174.61s-1.32-1.18-1.32.27c0,0-.92,38.36-.65,43.1,0,0-1.31,33.76-1.59,35.09l-8,.64s-2.62,1.33,0,1.33a71,71,0,0,1,8.29-.27l.65-1.7s.92-30.62.92-34,1.84-41.13,1.71-44.41Z"/><path class="cls-1" d="M179,171.19s-3.16-.65-5.39.66a8.7,8.7,0,0,0-.12,2.89c0,2.1-.8,40.73-.67,44.68,0,0,.53,4.6,1.18,5.51,0,0,.27,1.72.8.53,0,0,3.68-44.28,4.07-46.65,0,0,.53-6.3.13-7.62Z"/><path class="cls-1" d="M170.76,172.63a3.7,3.7,0,0,0-3.68.41s-.92,38.76-.53,42.17.14,14.85.14,14.85-.14,6.58,2,11.57c0,0,.52,3,0,3.68a2.58,2.58,0,0,0,.13,3c.92,1.06,4.74,4.74,4.86,6.18,0,0,.66.79.52-1.44A94.54,94.54,0,0,0,171,243.6c-1.19-2.5-2-9.85-1.85-14.06s.92-32.06,1.19-37.06,1-18.52.39-19.85Z"/><path class="cls-1" d="M150.26,265.41l-.14-1.18H147.5s-2.49.66-1.71,2.5a5.06,5.06,0,0,0,1.71.13,2.72,2.72,0,0,1,2.76-1.45Z"/><path class="cls-1" d="M161.82,174.08a8.83,8.83,0,0,0-3.41,0c-1.71.53.13,1.32,1.58,1.32s2.37-1.05,1.83-1.32Z"/><path class="cls-48" d="M151.71,20S142,20.07,138,21.39s-4.2,2.49-4.33,5,0,5.66,0,5.66-.4,2,3.8,2.62a70,70,0,0,0,13.67,1.05c3.93-.26,14.86-.92,17.21-2.23,0,0,.66.39,1.06-1.7V25.6s-.4-2.76-2.37-3.55c0,0-3.29-1.84-15.37-2.1Z"/><path class="cls-48" d="M151.32,20.6s-9.47-.13-13.28,1.45c0,0-5,2.1-1.44,3.16,4.34,1.31,13.41,1.57,15,1.57s13.67-.92,15.65-2.1c0,0,1.31-1.58-1.18-2.36a50,50,0,0,0-14.72-1.72Z"/><path class="cls-49" d="M151.32,20.6s-9.47-.13-13.28,1.45c0,0-5,2.1-1.44,3.16,4.34,1.31,13.41,1.57,15,1.57s13.67-.92,15.65-2.1c0,0,1.31-1.58-1.18-2.36a50,50,0,0,0-14.72-1.72Z"/><path class="cls-50" d="M168.79,24.94s-2.36,2.37-11.7,2.37a8,8,0,0,1-3.93,1.57L153,34.14s11.69.65,15.64-1.71l.13-7.49Z"/><path class="cls-50" d="M149,33.48l.39-3s-.39-1.44-1.05-.78a11.78,11.78,0,0,0-.4,3.42s0,.92,1.06.39Z"/><path class="cls-50" d="M144.62,32.17l.92-.39L145,30.45l-.27-1.31s-.91-1.31-1.18.4a19.38,19.38,0,0,0-.39,3.81s1.17,1.44,1.45-1.18Z"/><path class="cls-50" d="M134.1,25.6a26.08,26.08,0,0,0,3,1.57c1.32.53.78,6.84.78,6.84s-1.56,1.18-3.54-1.7l-.26-6.71Z"/><path class="cls-51" d="M144.22,49.12a32.78,32.78,0,0,0,4.34.4c.65-.28-.4,28.5-.4,28.5H145s-1.18,9.86-.79,11.57h-2.5s1.84-8.81,2.5-40.47Z"/><path class="cls-51" d="M137.78,41.76s2,.91,2-1.32a1.71,1.71,0,0,0-2-1.84s-1.05,2.23,0,3.16Z"/><path class="cls-51" d="M142.39,35.59v6.17s1,1.71,4.19,1.58,3.82-.67,4.47-2.24l-.4-5.25-8.26-.26Z"/><path class="cls-50" d="M137.12,269.74s0,1.2.53,1.2c0,0,1.06-.14.92-.92,0,0-.13-1.06-.67-1.06a1.07,1.07,0,0,0-.78.78Z"/><path class="cls-50" d="M128.45,266.6s-1.45,5.78,4,6.31c0,0,3.27.65,3.81-1.58l.25-3.29s-7.35-1.05-8-1.44Z"/><path class="cls-1" d="M141.72,94.45l-3.94,25.76s-.66,4.34,3.94,4.21,5.65-.93,5.78-5c0,0,.53-27.74,1.32-33,0,0-2.5-.92-2.89.14,0,0,.78,6.83-4.21,7.88Z"/><path class="cls-52" d="M147.89,86c-.65,4.47-2.35,35.62-2.35,35.62s-.14,2.76.52,3M145.4,90c-.39,2.63-3.15,31.8-3.15,31.8s-.26,2.64.39,3.3m.53-31.28c-.14.92-3.54,27.33-3.54,27.33s-.92,3.54.64,4.2M136.34,254c.92-1.32,1-3,2-5.91a60.7,60.7,0,0,0,2.24-10.78c.4-3.93.92-8.67.92-11.69,0-1.84-.13-3.15-.13-3.55.26-5.25.26-12.09.13-18.66-.27-12.22-.92-25.76-.8-27.59a1.81,1.81,0,0,1,1.73-2.23m-7.9,79.89c.67-1.06.27-2.37,1.32-5.65a53.81,53.81,0,0,0,2.49-10.52c.27-3,.92-8.15.92-11.3v-3.94c0-5.39-.12-12.62-.26-19.05-.25-11.56-.92-25.89-.92-27.6,0,0-.53-2.24,1.31-2.5m-7.09,79.36c.27-.52-1.31-1.17.27-5.25a59.28,59.28,0,0,0,2.75-9.72,76,76,0,0,0,1.32-10.91c0-1.45-.14-3.15-.26-4.73-.13-5.51-.4-13.26-.67-19.71-.25-10.38-1.18-26.14-1-27.59a1.51,1.51,0,0,1,1-1.45"/><path class="cls-47" d="M138.83,236.76s-1.84.14-3.55,2.64-3.41,8.27-3.41,8.27.25,5.13,3.8,2.64,3.55.78,3.82-5a13.16,13.16,0,0,1,1-4.21s1.31-3.68-1.71-4.34Z"/><path class="cls-52" d="M186.79,262.12c.66-1.7-1.71-10-3.8-14.31,0,0-.79-6.18-2.11-5.4,0,0-1.31,0-2.36-2.09,0,0-3-4.73-1.84-6.18l1.31-1.45s2.1-51.12,5.92-61.5c0,0,.92-2.23-.66-2.88"/><path class="cls-47" d="M182.59,272.11s2-6.17,1.84-8.14a8.77,8.77,0,0,0,3.16-3.28s2-3-3.16-16.7c0,0-3.16-7.62-3.68-11.82,0,0-.14-6.44,0-7.63,0,0,1.18-4.46,1.31-.13v8a30.37,30.37,0,0,0,1.45,5,95.19,95.19,0,0,1,4.72,15.38s1.84,9.06-.64,14.85a4.88,4.88,0,0,1-5,4.46Z"/><path class="cls-52" d="M172.21,253.85s.65.78.52-1.59c0,0-2-6.82-3.14-9.44s-2-9.87-1.85-13.94.92-32.06,1.18-37,1.31-14.45.67-15.77c0,0,.78-3.94-2-4.08m7.09-1.44s1.84-.27,1.84,2.89-2.89,51-2.76,54m-5-146.66s12.09,38.25,16.56,41M166.16,80.27s8.15,42.83,8.82,44.67M164.46,80.13c-1.59-.27,3.68,28.51,4.46,32.19s1.71,10.52,2,12.23m-29.84-39s-5.78,21.17-6.17,22.21c-.4.66-1.44,8.82-3.69,12.75m-7.08-.39a33.82,33.82,0,0,1,.78-3.42c1.84-5.78,8-24.18,8-24.18"/><path class="cls-53" d="M162.09,89.07s5,35.6,5.78,36.79"/><polygon class="cls-54" points="164.85 34.4 164.85 30.72 161.96 31.25 161.96 34.93 164.85 34.4 164.85 34.4"/><polygon class="cls-54" points="164.06 34.54 164.06 31.9 161.96 32.3 161.96 34.93 164.06 34.54 164.06 34.54"/><polygon class="cls-54" points="168.53 33.48 168.53 29.8 166.55 30.33 166.55 34.01 168.53 33.48 168.53 33.48"/><polygon class="cls-54" points="167.61 33.74 167.61 30.98 166.55 31.37 166.55 34.01 167.61 33.74 167.61 33.74"/><polygon class="cls-54" points="160.51 34.93 160.51 31.51 156.97 31.78 156.97 35.32 160.51 34.93 160.51 34.93"/><polygon class="cls-54" points="159.99 35.05 159.99 32.56 157.23 32.7 157.23 35.19 159.99 35.05 159.99 35.05"/><polygon class="cls-54" points="138.04 34.66 138.04 30.98 140.8 31.37 140.8 35.05 138.04 34.66 138.04 34.66"/><polygon class="cls-54" points="138.96 34.79 138.96 32.17 140.8 32.43 140.8 35.05 138.96 34.79 138.96 34.79"/><polygon class="cls-54" points="134.36 33.48 134.36 29.8 136.6 30.45 136.6 34.4 134.36 33.48 134.36 33.48"/><polygon class="cls-54" points="135.28 33.87 135.28 30.98 136.6 31.51 136.6 34.4 135.28 33.87 135.28 33.87"/><polygon class="cls-54" points="142.25 35.19 142.25 31.51 145.93 31.78 145.93 35.32 142.25 35.19 142.25 35.19"/><polygon class="cls-54" points="142.89 35.19 142.89 32.7 145.66 32.82 145.66 35.32 142.89 35.19 142.89 35.19"/><polygon class="cls-54" points="147.5 35.45 147.5 31.78 151.05 31.78 151.05 35.59 147.5 35.45 147.5 35.45"/><polygon class="cls-54" points="148.16 35.45 148.16 32.95 150.52 32.95 150.52 35.45 148.16 35.45 148.16 35.45"/><polygon class="cls-54" points="155.52 35.45 155.52 31.78 152.1 31.78 152.1 35.59 155.52 35.45 155.52 35.45"/><polygon class="cls-54" points="155 35.45 155 32.95 152.63 32.95 152.63 35.45 155 35.45 155 35.45"/><path class="cls-48" d="M35.55,143.73c7-12.75,19.05-26.8,33.24-31.41,2.9-.65,6.7-1.57,9.33.54,2.23,1.57,2.64,4.59,2.11,7.22-.8,3-2.9,7-6.45,7.49a1.88,1.88,0,0,1-1.57-.79c-.92-.8-.8-2.11-.66-3.29.66-2.5,2.89-5.12,5.52-5.39a1.19,1.19,0,0,0,.13-1.31,2.31,2.31,0,0,0-1.44-1.05c-2.76-.4-5,1.44-7.11,2.89-8.26,6.7-14.31,15.25-19.31,23.66-4.21,7.62-7.75,15.64-8.8,24.57-.4,6.44,1.58,12.75,7.35,15.9,6.19,3.29,14.33,1.05,20.63-.53l5.65-1.84,11.18-3.28c10.38-3,23.52-3.68,33.77.39,6.17,2.63,12.61,6.18,16.55,12.22,0,.13,0,.39-.12.39-8.81-2.49-20.25-4.85-28.91-.65l-.4-.13c-2.63-4.21-7.1-6.57-11.7-7.49-14.72-1.45-26.8,5.51-40.73,7.23-7,.65-14.58.39-19.45-5-7.76-7.75-6.84-21.41-3-30.75a84.71,84.71,0,0,1,4.2-9.59Z"/><path class="cls-48" d="M55.9,148.46c3.7-6.7,9.35-15,17.1-17.34a6.67,6.67,0,0,1,5.91,1c3.41,3.29,2.1,9.07.91,13a.72.72,0,0,0,.41.52,11.47,11.47,0,0,0,7.48-3.55c4.6-5.12,9.59-12,17.08-11a4.58,4.58,0,0,1,3.56,2.23c1.84,3.81,0,8-2.65,10.91a3.49,3.49,0,0,1-3.67,1.17,2,2,0,0,1-1.18-1.3,6.18,6.18,0,0,1,3.16-6.44c.52-.66,2.36-.27,2-1.58a1.91,1.91,0,0,0-1.58-.66c-3.68,1.58-6,5.26-8.14,8.42A48.56,48.56,0,0,0,90,157.13c-.4,1.72-.92,3.81.13,5.39a2.83,2.83,0,0,0,3.15,1.18c3.54-1.43,6.84-4.33,9.6-7.35,6.3-7.49,9.59-17,18.13-23.14,2.63-1.7,6.31-3.14,9.46-1.44.53.14.92.92,1.58.66.53-.52.92-1.58,1.84-1.45,2.37.14,5,0,7.49.26l.13.14-.66,1.7-13.14,26.55a1.63,1.63,0,0,0-.13,1.05c.13.4.66.4,1.05.26,1.84-1,3.29-3.15,4.6-4.85a33.07,33.07,0,0,0,3.16-5,1.78,1.78,0,0,1,1.44-1.06c.66.14,1.57-.12,2.1.39a39.93,39.93,0,0,1-3.28,6.32c-3.56,5.53-8.15,11.83-14.72,13.53a4,4,0,0,1-3.29-.65c-1.31-.92-1.31-2.5-1.7-3.81-.14-.26-.27-.26-.53-.14-2.76,2.5-5.65,5-9.6,4.48a4.4,4.4,0,0,1-2.89-2.37c-1-2-.51-4.47-.51-6.57a.46.46,0,0,0-.67-.13c-4.2,4.2-8.79,8-14.45,9.07a8,8,0,0,1-6.7-2.37c-4.21-5.51-.78-12.75,1.45-18.14a.63.63,0,0,0-.28-.78,43.85,43.85,0,0,0-4.46.66l-.53.51c-3.41,6.45-7.23,13.15-13.39,17.87-2.5,1.85-6.31,3.16-9.34,1.45-3.15-2.23-3.42-6-3-9.59a49,49,0,0,1,3.93-11.3Zm9.87-.39c-1.84,3.68-3.68,7.36-3.82,11.69a2.74,2.74,0,0,0,1.59,2,3,3,0,0,0,2.49-.8c3.54-2.89,6-7,8-10.91.12-.39.39-.78.26-1.17a15.49,15.49,0,0,1-5.79-4.21h-.39c-.26,0-.39.4-.65.53l-1.71,2.89Zm5.39-7.36c.13,2,2,3.69,3.67,4.34.4.13,1,.38,1.45-.14a13.16,13.16,0,0,0,1.32-3.81c.39-1.84.65-4.21-1-5.39a3,3,0,0,0-2.11,0,5.9,5.9,0,0,0-3.28,5Zm43.23,15c-.39,1.58-1.18,3.29-.65,5.14a1.54,1.54,0,0,0,.92.65c1.45,0,2.35-1.31,3.28-2.23a107.17,107.17,0,0,0,10.37-18.53c.41-1.32,1.19-2.63,1.19-4.07,0-.26-.39-.53-.66-.67-.53-.26-1.18.14-1.71.41-5.64,4.33-8.66,10.5-11.55,16.42l-1.19,2.88Z"/><path class="cls-48" d="M141.72,139.39a80.74,80.74,0,0,1,3.94-7.48,3.26,3.26,0,0,1,2.5-.67h6.31l.25.27c-1,2.49-2.23,5-3.54,7.49a2.82,2.82,0,0,1-1.7,1.31c-2.64,0-5.39.14-7.76,0-.26-.26,0-.66,0-.92Z"/><path class="cls-48" d="M148,152.14c4.46-9.07,9.72-17.74,17.21-25.49,7.23-7.22,15.12-13,24.58-14.85,2.62-.26,5.51-.13,7.48,1.71a1.18,1.18,0,0,0,1.32.39c6.84-2.63,16.28-3.54,23.12-.12a108.13,108.13,0,0,1,11.44,6.69c.53.27.26.79,0,1.06-2.1,2.49-3.94,5-5.92,7.48a.77.77,0,0,1-.78,0l-10.12-7c-4.6-3.15-10-5.39-16.16-4.47-.67.39-.28,1.19-.39,1.85.11,6.29-2.12,11.69-5.13,16.68-2.49,3.42-5.25,7.09-9.33,8.29a4.34,4.34,0,0,1-4.6-1.59c-3-4.61-.26-10.12,1.84-14.19a40.6,40.6,0,0,1,10.65-11.69c.12-.14.26-.27.12-.53-.39-.4-1.05-.14-1.57,0-6.84,2.23-12.35,8.15-17.34,13.92a103.81,103.81,0,0,0-19.73,36.15c-1.17,5-2.88,12.48,2.11,16,4.48,2.36,8.8-.65,12.09-3.54a34.16,34.16,0,0,0,9.85-17.87c.27-2,.8-4.73-1-6.05-1.58-.78-3,.53-4.08,1.71a19.37,19.37,0,0,0-4.2,10.9c-1.18.93-2.51,1.59-3.82,2.51a39,39,0,0,0-6.43,5.77c-.14.14-.14-.12-.27-.26-.26-7.49,2.38-13.8,6.45-19.45,3.28-3.81,7.48-7,12.47-5.79,2.24.53,3.68,2.9,4.08,5,.78,7-2.1,13-5.25,18.65-5.13,8-13.14,16-23.27,15.11a11.23,11.23,0,0,1-9.19-6.57c-3.81-7.62-1.19-17.48,1.44-24.83l2.37-5.65ZM182.59,139c.12.92.4,1.84,1.32,2.1,1.7.53,3.15-.79,4.46-1.71a29.38,29.38,0,0,0,8.15-17.08c0-.92.26-2.1-.27-2.88a1,1,0,0,0-1,.25,31.73,31.73,0,0,0-8.15,8.15c-2.23,3.41-4.35,6.83-4.47,11.17Z"/><path class="cls-48" d="M189,160.68c3.67-4.86,8.66-10.12,14.85-10.51a4.44,4.44,0,0,1,3.8,2c2.63,4,.4,8.94-.52,12.88-.13.26.13.53.4.65a6.09,6.09,0,0,0,3.8-.53l.53-.64c4.47-12.62,11.17-24.45,19.06-35.62,4.85-6.57,11.16-13.27,18.38-16.43,1.85-.52,4.35-1.31,5.93,0,1.83,1.59,1.31,4.21.78,6.18-.12,1.7-2.1,2-3.41,2.36-.13,0-.13,0-.26-.13.13-1,.65-2.09.92-3.28a2.18,2.18,0,0,0-.14-1.58c-.26-.66-.92-.39-1.45-.26-2.48,1.19-4.46,3.42-6.3,5.52-7.09,8.14-12.22,17.21-17,26.41-1.58,3.16-3.15,6.31-4.47,9.59a.66.66,0,0,0,.27.53c1.05,0,1.7-1.19,2.49-1.7,6.31-5.67,11.31-12.1,16-18.67a6.57,6.57,0,0,1,3.27-.53h.14c0,.92-.79,1.58-1.18,2.37a120.8,120.8,0,0,1-18.39,21.15l-5.13,4.34c-1.06.92-1.19,2.37-1.71,3.56a43.61,43.61,0,0,0-2.11,10.25,1.88,1.88,0,0,0,.79,1.57c1.32.52,2.37-.79,3.42-1.57,7-8.16,10.12-18.15,18.66-25.37,2.89-2.24,6.56-4.08,10.24-2.5.53.26,1.06,1.06,1.85.79.52-.39.52-1.31,1.31-1.31,2.51,0,5.27,0,7.63.13.26.26.12.53,0,.79l-1.72,3.42-10.77,21.68a6.11,6.11,0,0,0-1.06,3.15c.14.53.67.53,1.06.39a15,15,0,0,0,4.86-4.73c1.32-1.84,2.37-3.81,3.55-5.65a3.57,3.57,0,0,1,2.36-.12c.4.39-.14.92-.25,1.44-3.15,6.57-7.5,13.67-14.45,17.21-1.59.79-3.82,1.58-5.53.53-1.45-.92-1.31-2.62-1.84-4.07a.59.59,0,0,0-.67,0c-2.87,2.49-5.9,5.38-10,4.33-2.35-1.18-2.63-4.07-2.88-6.57-.14-.13,0-.26-.27-.4l-.26.14c-2.76,3.42-6.31,7.49-11.05,7.1-1.7-.14-3.26-1.84-3.81-3.43-1.7-5.26.14-10.9,1.33-15.89a.71.71,0,0,0-.67-.66h-3.94l-.65.79c-2.89,5.65-6,11.17-11,15.9-2.63,2.23-5.91,4.2-9.46,3.15-3-1.31-3.82-4.6-3.82-7.62.66-7.75,4.22-14.32,8.42-20.5Zm1,17.35a2.41,2.41,0,0,0,1.72,2.49,2.89,2.89,0,0,0,2.1-.27c3.69-2.75,5.92-6.95,7.89-10.77.26-.39.4-1-.13-1.31a16.27,16.27,0,0,1-5.27-4.2,1.63,1.63,0,0,0-.78-.13,38.21,38.21,0,0,0-3.29,6c-1.05,2.5-2.24,5.12-2.24,8.15Zm9.21-17.87a5.28,5.28,0,0,0,3.54,4.34c.27.12.92.39,1.19-.14,1.05-2.5,2.1-5.26,1.57-8.15A2.32,2.32,0,0,0,202,154.9a6.45,6.45,0,0,0-2.76,5.26Zm35.21,17.08c-.13.92-.25,2.1.39,2.76a1.43,1.43,0,0,0,1.45.25c1.84-.91,3.15-3,4.34-4.59A119.45,119.45,0,0,0,250,156.74c.14-.53.27-1.31-.26-1.71-1.58-.78-2.89.92-4,1.71-5.12,5.12-7.88,11.16-10.38,17.34l-.92,3.16Z"/><path class="cls-48" d="M242,129.67l3.41-4.47.53-.39c9.85-.14,17.47-6,24.44-12.88a6.72,6.72,0,0,1-.78,2.63c-4.61,10.64-15.51,20-27.48,20.1h-2.75c-.53-.13-.27-.66-.13-.91l2.76-4.08Z"/><path class="cls-48" d="M259.71,187.22h-1V182.1h1.84c1.44,0,2.23.26,2.23,1.58,0,.92-.67,1.17-1.31,1.31l1.31,2.23h-1.31L260.25,185h-.54v2.23Zm1.06-3c.39,0,.8-.13.8-.65s-.66-.66-1.05-.66h-.81v1.31Zm-.25,5.26a4.8,4.8,0,1,1,0-9.59,4.8,4.8,0,1,1,0,9.59Zm0-8.54a3.47,3.47,0,0,0-3.43,3.68,3.39,3.39,0,0,0,3.43,3.67v.14a3.58,3.58,0,0,0,3.41-3.81,3.46,3.46,0,0,0-3.41-3.68Z"/><path class="cls-55" d="M147.64,85.12A114.8,114.8,0,0,0,163,84.73m-15.37-.65A141.15,141.15,0,0,0,163,83.67"/><path class="cls-45" d="M141.33,84.08S138,83.55,137,82.75c0,0,1.72.28,4.07.41l.27.92Z"/><path class="cls-43" d="M144.34,85.12a14,14,0,0,0,4.22.39v-8L145,77.37s-.67,6.18-.67,7.75Z"/><path class="cls-1" d="M137.39,19.42c10.5-3.81,21.15-8,15.1-12.22C143.56,1.28,114,8.38,114,8.38c-31.93,8-68.2,34.43-80.17,51.38,0,0-14.31,20-15.63,29.57-1.18,8.28-6,22.21,12.75,4.86,0,0,53.48-55.06,106.44-74.77Z"/><path class="cls-56" d="M113.74,8.51s29.43-7.09,38.23-1c6,4.07-4.6,8.28-15,12.1C84.16,39.39,31.21,93.8,31.21,93.8c-18.67,17.08-13.93,3.42-12.61-4.87,1.31-9.58,15.51-29.29,15.63-29.43,11.82-16.83,47.7-42.84,79.51-51Z"/><path class="cls-57" d="M113.47,8.77s29.17-7.1,38-1.18c6.05,4.07-4.6,8.28-15,12.09-52.69,20-105,73.59-105,73.59-18.53,17.09-13.92,3.54-12.61-4.86,1.45-9.33,15.38-28.77,15.65-29,11.83-16.7,47.17-42.45,79-50.6Z"/><path class="cls-58" d="M113.21,8.9s28.9-7.09,37.72-1.17c5.9,4.07-4.61,8.14-14.86,12.09C83.51,39.92,31.6,92.88,31.6,92.88c-18.25,17-13.8,3.54-12.35-4.87,1.44-9.33,15.11-28.37,15.5-28.78,11.83-16.56,46.79-42,78.46-50.33Z"/><path class="cls-59" d="M113.07,9.17s28.65-7.09,37.33-1.32c5.91,4-4.61,8.15-14.73,12.1C83.1,40.18,31.86,92.48,31.86,92.48,13.74,109.3,18.07,96,19.64,87.62,21,78.41,34.5,59.5,35,59c11.83-16.3,46.38-41.52,78-49.8Z"/><path class="cls-60" d="M112.82,9.43S141.19,2.2,149.87,8c5.91,3.94-4.61,8.15-14.59,12C82.71,40.31,32.13,92.08,32.13,92.08c-18,16.7-13.8,3.56-12.22-4.85C21.36,78,34.75,59.5,35.42,58.84,47,42.67,81.27,17.72,112.82,9.43Z"/><path class="cls-61" d="M112.55,9.57s28.25-7.1,36.79-1.31c5.91,3.81-4.6,8-14.58,11.81C82.46,40.58,32.39,91.57,32.39,91.57c-18,16.54-13.79,3.67-12.09-4.87,1.45-8.94,14.59-27.2,15.37-28C47.24,42.55,81.15,18,112.55,9.57Z"/><path class="cls-62" d="M112.29,9.83s28-7.22,36.53-1.45c5.79,3.81-4.6,8-14.46,11.83C82.07,40.83,32.66,91.16,32.66,91.16c-17.87,16.44-13.93,3.69-12.1-4.86C22.14,77.37,35,59.37,36,58.45,47.5,42.55,81,18.24,112.29,9.83Z"/><path class="cls-63" d="M112,10s27.73-7.1,36.27-1.45c5.79,3.82-4.46,8-14.33,11.83C81.67,41.1,32.91,90.77,32.91,90.77,15.18,107.07,19,94.45,21,85.91c1.56-8.8,14.17-26.54,15.23-27.6C47.77,42.55,80.76,18.5,112,10Z"/><path class="cls-64" d="M111.76,10.22s27.59-7.22,36-1.57c5.78,3.81-4.47,8-14.2,11.82C81.4,41.36,33.19,90.38,33.19,90.38c-17.62,16.17-13.94,3.68-11.83-4.87,1.56-8.66,14.06-26.14,15.23-27.33,11.44-15.63,44-39.42,75.17-48Z"/><path class="cls-65" d="M111.63,10.49s27.2-7.23,35.61-1.59c5.64,3.68-4.46,7.89-14.06,11.57C81,41.49,33.44,89.85,33.44,89.85c-17.47,16-13.92,4-11.83-4.85,1.59-8.55,13.94-25.77,15.25-27.08C48.28,42.42,80.48,19,111.63,10.49Z"/><path class="cls-66" d="M111.36,10.61S138.44,3.39,146.71,9c5.65,3.68-4.46,7.75-14.06,11.56-52,21.16-99,68.86-99,68.86C16.36,105.36,19.78,93.4,22,84.6c1.58-8.42,13.66-25.37,15.11-26.82,11.44-15.36,43.23-38.5,74.24-47.17Z"/><path class="cls-67" d="M111.11,10.88s26.79-7.23,35.08-1.71c5.65,3.68-4.47,7.75-13.93,11.56C80.35,42,34,89.07,34,89.07,16.75,104.83,20,93,22.4,84.2c1.58-8.41,13.41-25.1,15-26.54,11.42-15.24,42.84-38.1,73.72-46.78Z"/><path class="cls-68" d="M110.84,11s26.55-7.23,34.95-1.71c5.53,3.69-4.6,7.76-13.92,11.57C80,42.28,34.11,88.54,34.11,88.54c-17,15.77-13.94,4.07-11.44-4.73,1.7-8.28,13.39-24.71,15.11-26.41C49.08,42.42,80,19.82,110.84,11Z"/><path class="cls-69" d="M110.58,11.27S137,4,145.26,9.43c5.39,3.68-4.6,7.75-13.79,11.56C79.7,42.55,34.36,88.15,34.36,88.15c-16.82,15.64-13.92,4.07-11.3-4.87,1.7-8.15,13.14-24.18,15-26,11.18-14.84,41.78-37,72.54-46Z"/><path class="cls-70" d="M110.31,11.53s26.15-7.36,34.43-1.84c5.38,3.56-4.47,7.63-13.79,11.3C79.31,42.67,34.62,87.75,34.62,87.75c-16.69,15.37-13.93,4.08-11.17-4.86C25.17,74.87,36.34,59,38.31,57c11.17-14.72,41.39-36.53,72-45.47Z"/><path class="cls-71" d="M110.19,11.66s25.75-7.22,34-1.83c5.39,3.55-4.47,7.62-13.67,11.3C78.91,42.94,34.89,87.36,34.89,87.36,18.33,102.6,21,91.43,23.72,82.5c1.71-8,12.73-23.53,14.85-25.63,11.16-14.59,41-36.14,71.62-45.21Z"/><path class="cls-72" d="M109.92,11.93s25.63-7.36,33.77-2c5.4,3.54-4.47,7.62-13.52,11.3-51.53,21.94-95,65.58-95,65.58C18.73,102.07,21.22,91,24.12,82,25.82,74.21,36.59,59,39,56.75c11-14.47,40.47-35.76,71-44.82Z"/><path class="cls-73" d="M109.66,12.07s25.36-7.23,33.51-2c5.25,3.54-4.46,7.62-13.4,11.29-51.52,22.08-94.35,65-94.35,65-16.3,15.12-13.94,4.22-11-4.85,1.84-7.76,12.49-22.74,14.86-25.11,11-14.19,40.08-35.21,70.43-44.4Z"/><path class="cls-74" d="M109.4,12.33S134.63,5,142.64,10.22c5.25,3.55-4.46,7.62-13.28,11.3C77.86,43.73,35.67,86,35.67,86c-16.15,14.85-13.92,4.2-10.91-4.86C26.6,73.56,37,58.84,39.49,56.34c11-14.18,39.55-34.82,69.91-44Z"/><path class="cls-75" d="M109.13,12.58s25-7.35,33-2.09c5.26,3.4-4.46,7.35-13.27,11C77.6,43.86,36,85.65,36,85.65,19.78,100.37,21.89,90,25.17,80.78,27,73.17,37.12,58.7,39.75,56.22c11-14.06,39.16-34.43,69.38-43.64Z"/><path class="cls-76" d="M108.87,12.72s24.7-7.36,32.72-2.11c5.12,3.42-4.47,7.36-13.14,11C77.2,44.12,36.2,85.12,36.2,85.12c-16,14.72-14.06,4.47-10.77-4.85C27.4,72.9,37.26,58.7,40,56c11-13.79,38.77-33.9,68.86-43.23Z"/><path class="cls-77" d="M108.74,13s24.44-7.37,32.32-2.25c5.13,3.42-4.33,7.37-13,11C76.81,44.39,36.34,84.73,36.34,84.73,20.56,99.32,22.4,89.2,25.82,79.86c1.84-7.35,11.69-21.16,14.59-24C51.32,42.16,78.64,22.32,108.74,13Z"/><path class="cls-78" d="M108.48,13.11s24.17-7.36,32.06-2.23c5.12,3.41-4.33,7.36-12.88,11C76.55,44.65,36.59,84.34,36.59,84.34,21,98.79,22.67,88.81,26.21,79.47c1.84-7.22,11.44-20.89,14.46-23.78C51.44,42,78.52,22.57,108.48,13.11Z"/><path class="cls-79" d="M108.21,13.38S132.26,6,140,11c5.12,3.41-4.35,7.36-12.89,11-51,22.87-90.27,61.89-90.27,61.89-15.5,14.2-13.94,4.47-10.39-4.86,2-7.22,11.31-20.5,14.47-23.66,10.77-13.39,37.31-32.58,67.27-42Z"/><path class="cls-80" d="M108,13.5s23.77-7.35,31.53-2.23c5,3.29-4.33,7.23-12.75,10.78C75.88,45,37.12,83.41,37.12,83.41,21.75,97.61,23.2,88,26.88,78.55c2-7,11-20,14.32-23.25C52,42,78.12,23.1,108,13.5Z"/><path class="cls-81" d="M107.68,13.77S131.2,6.4,139,11.4c5,3.29-4.33,7.24-12.61,10.78C75.49,45.31,37.39,83,37.39,83c-15.25,14-13.94,4.59-10.12-4.87,2-7,10.91-19.71,14.32-23C52.23,42,78,23.36,107.68,13.77Z"/><path class="cls-82" d="M107.43,14s23.38-7.49,31-2.5c5,3.3-4.34,7.23-12.48,10.79C75.09,45.57,37.65,82.63,37.65,82.63c-15.12,13.93-14.06,4.6-10.13-4.87,2.11-6.82,10.79-19.31,14.33-22.85C52.49,42,77.86,23.63,107.43,14Z"/><path class="cls-83" d="M107.29,14.16s23-7.35,30.61-2.5c4.88,3.29-4.33,7.1-12.34,10.78C74.83,45.84,37.9,82.23,37.9,82.23c-15,13.8-14.06,4.61-10-4.86,2-6.84,10.51-18.92,14.2-22.6,10.64-12.88,35.6-30.89,65.17-40.61Z"/><path class="cls-84" d="M107,14.42s22.74-7.49,30.36-2.62c4.86,3.15-4.21,7.09-12.35,10.77C74.44,46.09,38.18,81.71,38.18,81.71c-14.85,13.67-14.06,4.72-10-4.86,2.1-6.57,10.38-18.54,14.19-22.34C53,41.89,77.6,24.27,107,14.42Z"/><path class="cls-85" d="M106.76,14.56s22.6-7.36,30.09-2.49c4.87,3-4.2,7-12.21,10.5C74.05,46.23,38.43,81.31,38.43,81.31,23.72,94.85,24.37,86,28.58,76.45c2.1-6.57,10.12-18.14,14.19-22.07,10.51-12.49,34.56-29.83,64-39.82Z"/><path class="cls-86" d="M106.51,14.83s22.33-7.49,29.83-2.64c4.85,3-4.22,7-12.1,10.52C73.78,46.48,38.7,80.92,38.7,80.92,24.12,94.33,24.64,85.78,29,76.05,31.07,69.62,39,58.18,43,54.24,53.42,41.89,77.2,24.81,106.51,14.83Z"/><path class="cls-87" d="M106.24,15.08s22.21-7.49,29.57-2.75c4.73,3-4.22,7-12,10.51-50.46,23.92-85,57.68-85,57.68C24.51,93.8,24.9,85.39,29.24,75.66,31.46,69.22,39.1,58.18,43.29,54c10.38-12.21,33.78-28.9,63-38.89Z"/><path class="cls-88" d="M106,15.22s21.93-7.49,29.3-2.76c4.74,3-4.2,7-12,10.5C73,47,39.1,80,39.1,80c-14.2,13.13-13.93,5-9.47-4.87,2.11-6.17,9.6-16.95,13.94-21.28C54,41.76,76.94,25.33,106,15.22Z"/><path class="cls-89" d="M105.84,15.48s21.57-7.63,28.92-2.76c4.73,2.89-4.21,6.84-11.83,10.38C72.74,47.28,39.35,79.61,39.35,79.61c-14.06,13-14.06,5-9.33-4.87,2.11-6.18,9.33-16.68,13.94-21,10.25-12,32.85-28.12,61.88-38.24Z"/><path class="cls-90" d="M105.59,15.61S127,8.12,134.23,12.85c4.73,2.89-4.2,6.83-11.7,10.25C72.33,47.41,39.62,79.21,39.62,79.21c-14.06,12.87-14.06,5-9.33-4.86,2.23-6,9.33-16.29,13.93-20.89,10.25-11.7,32.33-27.6,61.37-37.85Z"/><path class="cls-91" d="M105.32,15.87S126.48,8.26,133.84,13c4.46,2.88-4.2,6.83-11.7,10.25C72.08,47.67,39.88,78.68,39.88,78.68,26,91.57,25.82,83.81,30.68,74c2.23-6,9.07-15.89,13.81-20.63,10.24-11.56,31.92-27.19,60.83-37.45Z"/><path class="cls-92" d="M105.06,16.14s20.9-7.63,28.25-3c4.47,2.89-4.2,6.71-11.57,10.25-50,24.57-81.6,54.93-81.6,54.93C26.35,91,26.08,83.41,31,73.42c2.36-5.78,8.93-15.5,13.79-20.23,10.25-11.56,31.54-26.81,60.32-37Z"/><path class="cls-93" d="M104.79,16.26s20.77-7.61,28-3c4.47,2.89-4.21,6.7-11.56,10.24C71.29,48.2,40.41,77.9,40.41,77.9,26.74,90.38,26.35,83,31.35,73c2.34-5.78,8.66-15.11,13.78-20.1,10.13-11.3,31-26.29,59.66-36.67Z"/><path class="cls-94" d="M104.67,16.53s20.37-7.63,27.59-3c4.34,2.76-4.21,6.57-11.44,10.13C71,48.46,40.67,77.51,40.67,77.51c-13.54,12.34-14.07,5.12-8.93-4.87C34,67,40.27,57.92,45.41,52.8,55.51,41.63,76,26.91,104.67,16.53Z"/><path class="cls-95" d="M104.4,16.66s20.24-7.62,27.33-3c4.34,2.75-4.2,6.57-11.3,10C70.63,48.59,40.94,77,40.94,77,27.52,89.33,26.74,82.23,32,72.25A73.5,73.5,0,0,1,45.66,52.66c10-11,30.1-25.49,58.74-36Z"/><path class="cls-96" d="M104.14,16.92s20-7.62,27.06-3.15c4.35,2.76-4.2,6.57-11.16,10-49.8,25.09-79,52.82-79,52.82C27.92,88.81,27,82,32.39,71.72A74.65,74.65,0,0,1,45.94,52.4c10-10.91,29.68-25,58.2-35.48Z"/><path class="cls-97" d="M103.87,17.18s19.72-7.75,26.8-3.29c4.35,2.77-4.19,6.58-11.16,10C70,49.12,41.33,76.18,41.33,76.18c-13,12.1-14.06,5.4-8.55-4.85A69.93,69.93,0,0,1,46.33,52.27c9.85-10.78,29.16-24.57,57.54-35.09Z"/><path class="cls-98" d="M103.61,17.32S123.19,9.69,130.17,14c4.19,2.76-4.09,6.57-11,10C69.57,49.38,41.59,75.79,41.59,75.79c-12.88,11.83-14.07,5.39-8.54-4.85A73.79,73.79,0,0,1,46.58,52c9.85-10.53,28.79-23.93,57-34.7Z"/><path class="cls-99" d="M103.36,17.58s19.3-7.75,26.28-3.29c4.2,2.63-4.08,6.44-10.91,9.86C69.18,49.65,41.85,75.27,41.85,75.27c-12.74,11.82-14.06,5.51-8.41-4.87A79.31,79.31,0,0,1,46.85,51.88c9.86-10.39,28.38-23.52,56.51-34.3Z"/><path class="cls-100" d="M103.22,17.72s19-7.62,25.89-3.3c4.2,2.64-4.07,6.45-10.77,9.73C68.93,49.77,42.12,74.87,42.12,74.87,29.5,86.57,28.05,80.39,33.83,70A70.73,70.73,0,0,1,47.11,51.75c9.85-10.26,28-23.13,56.11-34Z"/><path class="cls-101" d="M103,18s18.78-7.75,25.62-3.41c4.07,2.62-4.07,6.31-10.64,9.71C68.52,50,42.38,74.48,42.38,74.48,29.9,86,28.31,80,34.11,69.62A76.9,76.9,0,0,1,47.37,51.48C57.22,41.36,74.83,28.88,103,18Z"/><path class="cls-102" d="M102.69,18.24s18.54-7.75,25.36-3.55c4.07,2.63-4.07,6.3-10.63,9.72C68.26,50.3,42.65,74.09,42.65,74.09c-12.36,11.3-14.2,5.52-8.15-4.87A71.45,71.45,0,0,1,47.77,51.35c9.72-10,26.93-22.21,54.92-33.11Z"/><path class="cls-103" d="M102.44,18.37s18.38-7.76,25.09-3.54c4.06,2.62-4.07,6.3-10.52,9.72-49.14,26-74.11,49-74.11,49-12.22,11.3-14.19,5.65-8.15-4.87A81.13,81.13,0,0,1,48,51.22c9.72-9.86,26.54-21.81,54.41-32.85Z"/><path class="cls-104" d="M102.16,18.64S120.3,10.88,127,15.08c4.08,2.5-4.07,6.18-10.38,9.6C67.48,50.83,43.17,73.17,43.17,73.17,31,84.34,29,78.82,35.14,68.3A81.62,81.62,0,0,1,48.28,51c9.6-9.6,26.16-21.29,53.88-32.32Z"/><path class="cls-105" d="M101.91,18.76s17.87-7.75,24.57-3.54c3.94,2.5-4.07,6.17-10.25,9.46-49,26.28-72.8,48.08-72.8,48.08-12.08,11-14.19,5.65-7.88-4.85a77.82,77.82,0,0,1,13-17.08c9.58-9.6,25.75-20.89,53.35-32.07Z"/><path class="cls-106" d="M101.77,19s17.62-7.76,24.19-3.69c3.93,2.5-3.95,6.18-10.27,9.47C66.82,51.22,43.57,72.37,43.57,72.37c-11.83,10.91-14.07,5.79-7.76-4.85S54.6,38.08,101.77,19Z"/></svg>