<svg width="54" height="40" viewBox="0 0 54 40" fill="none" xmlns="http://www.w3.org/2000/svg">
<path d="M44.2576 0V15.2469H32.0038C30.355 4.60625 22.6768 0 11.7107 0H0V40H12.257C23.0027 40 30.748 34.8531 32.122 23.5719H44.2576V40H54V0H44.2576ZM11.1099 32.2688H9.79669V7.67812H11.1099C17.6762 7.67812 22.3285 10.3094 22.3285 19.8125C22.3285 29.3156 17.6762 32.2688 11.1099 32.2688Z" fill="white"/>
<path d="M32.0645 10.4188V0H22.3285V0.56875C24.3128 1.36875 26.0542 2.4375 27.5432 3.7625C29.5402 5.54375 31.0516 7.76875 32.0645 10.4188Z" fill="white"/>
<path d="M22.3285 39.4313V40H32.0677V29.25C30.2751 34.0281 26.9648 37.4875 22.3285 39.4313Z" fill="white"/>
</svg>
