<svg width="126" height="40" viewBox="0 0 126 40" fill="none" xmlns="http://www.w3.org/2000/svg">
<g clip-path="url(#clip0_32_27)">
<path d="M48.5418 35.04C43.8158 32.16 37.4076 31.76 27.1546 34.56C16.1807 37.12 12.5761 38.72 7.76998 35.6C5.92764 34.08 5.20673 31.52 5.68734 27.92C6.80876 22.08 9.85263 16.32 15.2995 10C18.3434 6.72 21.147 3.92 24.9117 2.72C27.7954 2 27.5551 4.16 27.1546 4.48C26.7541 4.48 26.1934 4.56 25.7128 4.88C25.3123 5.2 24.2709 6.08 24.1908 7.36C24.1107 9.28 26.1934 8.88 27.0745 7.84C28.0357 6.64 29.3974 4.4 28.276 2.32C27.7954 1.6 26.9944 1.04 25.9531 0.879999C22.5087 0.719999 19.3046 2.32 16.3409 4.08C9.93273 8.4 4.80622 14.4 1.92256 20.96C0.24042 24.88 -1.20141 30.56 1.12154 35.12C2.88378 38.32 6.56846 39.92 10.974 39.52C14.0179 39.2 17.7827 38.24 20.2658 37.6C22.749 37.04 35.4852 32.72 39.8107 40C39.8107 40 41.1724 37.36 44.6969 37.28C47.5805 37.04 51.7458 38 54.7897 40.08C53.7484 38.56 50.8647 36.48 48.5418 35.04Z" fill="#fff"/>
<path d="M28.2759 10.64C25.8729 9.2 21.0668 12.08 17.302 17.04C13.7775 21.52 12.3357 26.64 14.0178 28.96C16.501 31.76 21.0668 27.6 22.9892 25.44L23.2295 25.2C24.5111 23.84 25.5524 22.16 26.5137 20.64C26.5137 20.64 27.3948 19.2 27.4749 19.12C28.0356 19.04 28.6764 18.88 29.4774 18.64C29.4774 18.64 26.9142 22.72 26.9142 25.68C26.9142 26.32 26.9943 28.96 29.6376 29.76C33.1621 30.32 35.9657 27.68 38.3687 25.36C38.3687 25.36 38.7692 24.96 39.0095 24.72C38.9294 24.96 38.8493 25.28 38.8493 25.28C37.8881 28.72 39.2498 29.44 40.131 29.68C42.7743 30.4 45.8983 26.72 45.8983 26.72C45.8182 27.84 45.5779 28.8 46.8595 29.6C48.061 30 49.2626 29.36 50.1437 28.8C53.4278 26.56 56.0712 23.04 58.2339 20H56.8722C56.8722 20 53.5079 24.64 51.3452 25.68C51.3452 25.68 50.9447 25.84 50.7044 25.68C50.384 25.44 50.5442 24.96 50.7044 24.56L59.035 10.4H55.0299C55.0299 10.4 54.6294 11.12 54.5493 11.12C54.5493 11.12 54.4692 10.96 54.3891 10.96C51.9059 7.68 46.2988 12.8 42.1335 18.64C40.5315 20.88 38.4488 23.44 36.3662 25.28C36.3662 25.28 33.2422 28.08 31.8805 26.08C31.3999 25.28 31.5601 24 31.8004 23.2C33.3223 18.88 36.0458 14.96 39.0896 12.64C39.9708 12 40.932 11.76 41.4126 12.08C41.8932 12.32 41.9733 12.96 41.6529 13.36C40.932 13.36 40.3713 13.52 39.8907 14C39.0095 14.96 38.6891 15.84 38.9294 16.64C40.3713 18.56 43.1748 14.72 43.0146 12.4C42.9345 11.6 42.4539 10.8 41.8131 10.4C40.7718 9.84 39.1697 10 38.1284 10.48C36.7667 10.96 34.6039 12.72 33.3223 14.08C31.7203 15.76 28.9968 17.68 28.1157 17.44C28.4361 16.88 30.7591 12.32 28.2759 10.64ZM47.5804 17.2C48.3814 16.16 50.6243 13.44 51.1049 12.96C52.9472 11.36 53.6681 12.08 53.7483 12.56C52.0661 15.52 50.0636 18.96 48.1411 22L47.5804 22.88C46.7794 24.16 45.8983 25.2 44.5366 25.92C44.3763 26 43.9758 26 43.8156 25.84C43.5753 25.68 43.4151 25.44 43.4952 25.12C43.4952 24.16 44.4565 21.28 47.5804 17.2ZM25.8729 19.12C25.8729 19.12 25.8729 19.2 25.7928 19.28L24.1106 22C23.0693 23.36 21.7877 25.04 20.1856 25.84C19.705 26 19.0642 26.08 18.6637 25.68C17.9428 24.88 18.3433 23.68 18.5836 22.8L18.6637 22.48C19.5448 20.24 20.9065 18.24 22.1882 16.4H22.2683C23.1494 17.92 24.6713 18.64 25.8729 18.96C25.953 18.96 25.953 19.04 25.8729 19.12ZM27.4749 15.92L26.754 17.6C26.6739 17.68 26.5137 17.68 26.2734 17.6H25.8729C24.8315 17.28 23.9504 16.64 23.7101 15.76C23.3897 14.16 24.7514 12.96 25.3922 12.48C26.0331 12.08 26.9142 11.84 27.4749 12.24C27.7953 12.64 27.9555 13.12 27.9555 13.6C27.9555 14.4 27.7152 15.2 27.4749 15.92Z" fill="#fff"/>
<path d="M65.5232 10.4H61.8385L59.6758 13.92H63.4406L65.5232 10.4Z" fill="#fff"/>
<path d="M110.861 34.88C110.46 35.12 109.9 34.96 110.06 34.32C110.62 32.8 112.703 29.6 112.703 29.6L118.551 19.52H114.465C114.305 19.84 113.905 20.56 113.905 20.56C113.744 20.24 113.184 19.6 112.943 19.44C111.982 18.88 110.54 19.12 109.499 19.68C105.174 22.16 102.05 26.96 99.5664 30.72C99.5664 30.72 97.0032 34.88 95.4812 35.2C94.3598 35.28 94.4399 33.84 94.52 33.44C94.9205 30.96 95.9619 28.64 97.0032 26.48C99.0858 25.04 101.489 23.2 103.652 21.2C108.057 17.12 111.822 12.48 112.703 11.04C112.543 11.04 111.982 11.2 111.261 11.2C107.577 16.08 100.448 22.96 98.2047 24C99.1659 21.68 105.574 10.72 111.021 5.44L111.902 4.64C113.264 3.36 114.626 2.08 115.667 1.92C115.747 1.92 115.907 1.92 116.067 2.16C116.147 3.12 115.747 3.84 115.346 4.64L114.786 5.84C114.786 5.84 115.667 5.68 116.228 5.52C116.868 4.32 117.589 3.04 117.349 1.44C117.269 0.960001 116.868 0.560001 116.388 0.480001C114.786 0.160001 112.943 1.36 111.582 2.32L111.261 2.4C103.892 8 97.7241 16 92.3573 26.88C91.9568 27.2 90.4348 27.52 90.1945 27.36C90.7552 26.32 91.3961 24.88 91.7165 23.28C91.7966 22.88 91.7966 22.4 91.7966 21.92C91.7966 20.96 91.5563 20.08 90.6751 19.44C89.6338 18.96 88.3522 19.2 87.4711 19.6C83.5461 21.2 80.6624 25.04 78.6599 28.16C77.5385 30.16 76.417 32.32 76.1767 34.8C75.9364 36.72 76.417 37.92 77.6186 38.56C78.8201 39.12 80.2619 38.48 80.8226 38.24C84.7476 36.24 87.4711 32.24 89.6338 28.56C89.7139 28.56 90.9154 28.48 91.7966 28.32C91.7165 28.48 91.316 29.84 91.316 29.84C89.9542 33.68 89.3134 36.32 90.6751 37.92C92.5175 40.08 95.6414 37.84 98.1246 34.8C97.644 38.4 99.5664 38.96 101.088 38.64C102.77 38.16 104.693 36.4 105.574 35.52C105.334 36.56 105.414 38.4 106.936 38.64C107.977 38.8 108.778 38.32 109.739 37.84C113.024 36.08 116.949 30.32 117.99 28.72H116.628C115.026 30.8 113.184 33.6 110.861 34.88ZM81.143 34.72C80.9027 34.4 80.8226 34.08 80.8226 33.76C80.7425 31.6 83.1456 27.76 84.9078 25.6C85.6287 27.2 87.3109 28.08 88.2721 28.48C87.0706 30.96 82.9053 36.64 81.143 34.72ZM88.9129 27.28C88.8328 27.36 86.7502 26.72 86.3497 24.88C86.0292 23.28 87.1507 22.08 88.192 21.44C88.6726 21.12 89.3935 20.96 89.8741 21.12C90.3547 21.44 90.5149 22 90.5149 22.56C90.5149 22.96 90.4348 23.28 90.4348 23.68V23.76C90.1144 24.96 89.5537 26.16 88.9129 27.28ZM105.494 33.84L105.093 34.16C104.533 34.64 103.972 35.12 103.251 34.88C103.091 34.8 102.931 34.56 102.851 34.4C102.851 33.04 103.411 31.76 104.052 30.56L104.212 30.24C105.975 27.36 108.057 24 111.021 21.68C111.502 21.36 112.062 21.04 112.703 21.28C112.863 21.36 113.024 21.6 113.024 21.84C113.024 21.92 112.943 22.08 112.943 22.16C112.142 23.44 111.341 24.88 110.54 26.16C109.018 28.72 107.496 31.44 105.494 33.84Z" fill="#fff"/>
<path d="M105.654 4.88L105.574 4.8C103.732 3.76 101.649 2.72 99.7266 1.76C95.4011 -0.480001 91.8767 0.319999 90.0343 0.959999C89.3134 1.2 88.6726 1.44 88.6726 1.44C87.3109 0.0799987 85.1481 0.239999 83.5461 0.559999C77.7788 2.16 72.4119 6.08 66.7247 12.88C62.5594 18.16 59.9161 22.72 58.5543 27.28C57.513 30.32 57.1926 34.72 59.836 37.36C62.0788 39.6 65.0426 39.04 67.1252 38.24C71.691 36.08 75.6961 31.44 77.6987 26.08C78.1793 24.48 78.74 22.24 77.8589 20.56C77.4583 19.76 76.5772 19.28 75.616 19.28C72.492 19.6 69.3681 22.08 67.766 25.68C66.965 27.52 66.4844 29.04 66.164 31.44C67.1252 30.32 69.1278 28.56 71.3706 27.6C71.3706 27.6 71.691 25.28 73.213 23.2C73.7737 22.32 74.9752 20.96 76.3369 21.28C77.5385 21.68 77.1379 24.8 75.616 27.76C74.4946 30 72.7323 32.16 70.9701 33.76C69.3681 35.04 67.0451 36.64 65.0426 35.44C63.761 34.72 63.1201 33.2 63.2002 31.28C63.761 25.68 66.4043 20.96 70.1691 15.52C74.014 10.48 78.3395 5.28 84.1068 2.48C85.3083 1.92 86.3496 1.76 87.3109 2.08C87.3109 2.08 81.8639 4.96 79.3007 10.32C78.6599 11.68 77.7788 13.52 78.6599 15.12C79.1405 15.92 80.0216 16 80.6624 16C83.8665 15.28 85.869 12.4 87.5512 9.76C88.5124 7.76 89.3935 5.84 89.3134 3.6C89.3134 3.36 89.3134 2.96 89.2333 2.72C90.7552 1.92 93.8792 3.28 93.8792 3.28C96.122 4 100.127 6.88 102.29 8C103.972 6.4 105.254 5.28 105.654 4.88ZM88.2721 4C87.7114 10.64 82.3445 14.48 81.0629 14.8C80.2619 14.96 78.9002 14.64 80.1017 11.84C81.8639 8.08 84.9078 4.88 88.192 3.28C88.2721 3.52 88.2721 3.76 88.2721 4Z" fill="#fff"/>
<path d="M120.153 4.56C117.429 6.08 115.026 7.04 111.662 6.88C111.261 7.36 109.819 9.04 109.018 10.4C113.905 11.12 118.47 8.48 121.274 6C124.398 3.36 126 0 126 0C126 0 123.597 2.64 120.153 4.56Z" fill="#fff"/>
<path d="M114.385 37.12C114.545 37.12 114.626 37.12 114.626 36.88C114.626 36.72 114.385 36.72 114.305 36.72H114.065V37.12H114.385ZM114.065 38.16H113.664V36.4H114.305C114.786 36.4 115.026 36.56 115.026 36.96C115.026 37.28 114.866 37.44 114.626 37.44L115.106 38.24H114.626L114.225 37.52H114.065V38.16Z" fill="#fff"/>
<path d="M114.305 38.72C113.504 38.72 112.863 38.08 112.863 37.28C112.863 36.48 113.504 35.84 114.305 35.84C115.106 35.84 115.747 36.48 115.747 37.28C115.747 38.08 115.106 38.72 114.305 38.72ZM115.587 37.28C115.587 36.56 115.026 36 114.305 36C113.584 36 113.024 36.56 113.024 37.28C113.024 38 113.584 38.56 114.305 38.56C115.026 38.56 115.587 38 115.587 37.28Z" fill="#fff"/>
</g>
<defs>
<clipPath id="clip0_32_27">
<rect width="126" height="40" fill="white"/>
</clipPath>
</defs>
</svg>
